<?xml version="1.0" encoding="UTF-8" standalone="no"?>
<!-- Created with Inkscape (http://www.inkscape.org/) -->
<svg xmlns:rdf="http://www.w3.org/1999/02/22-rdf-syntax-ns#" xmlns="http://www.w3.org/2000/svg" xmlns:cc="http://web.resource.org/cc/" xmlns:dc="http://purl.org/dc/elements/1.1/" xmlns:svg="http://www.w3.org/2000/svg" xmlns:inkscape="http://www.inkscape.org/namespaces/inkscape" xmlns:sodipodi="http://sodipodi.sourceforge.net/DTD/sodipodi-0.dtd" xmlns:ns1="http://sozi.baierouge.fr" xmlns:xlink="http://www.w3.org/1999/xlink" id="svg2" viewBox="0 0 295.29 91.983" version="1.0" inkscape:version="0.91 r13725">
  <path id="path2161" style="fill:#000000" d="m145.1 88.916c0.15-2.337-0.07-4.25-0.5-4.25s-0.81-1.462-0.85-3.25c-0.06-2.753-0.2-2.944-0.96-1.25-0.69 1.556-0.86 1.112-0.78-2 0.06-2.2-1.47-8.95-3.39-15-1.93-6.05-4.12-13.41-4.87-16.357-0.99-3.896-1.97-5.588-3.59-6.203-1.22-0.465-2.21-1.654-2.19-2.643 0.01-0.988-0.29-2.809-0.68-4.047-0.52-1.669-0.3-2.25 0.85-2.25 1.23 0 1.44-0.782 0.99-3.75-0.85-5.62-2.03-6.016-3.34-1.127-1.52 5.647-4.39 7.945-4.7 3.764-0.24-3.161-0.69-3.236-5.81-0.97-2.59 1.146-6.26 2.083-8.14 2.083-7.412 0-23.889-4.202-32.318-8.241-4.8-2.3-10.024-4.088-12-4.107-2.221-0.022-10.172 2.853-21.761 7.867l-18.261 7.902 4.261 1.266c4 1.188 5.004 1.023 16.428-2.711 13.89-4.539 13.218-4.402 12.96-2.641-0.333 2.269-8.827 9.741-14.984 13.181l-5.856 3.272 4.16 0.703c4.674 0.79 6.463-0.137 19.819-10.277 3.996-3.033 7.468-5.313 7.716-5.065s-2.009 3.72-5.016 7.717c-3.006 3.996-5.466 7.555-5.466 7.908s-1.688 2.375-3.75 4.493c-2.063 2.118-3.075 3.621-2.25 3.341s3.373-0.988 5.663-1.574c2.912-0.744 6.491-3.178 11.907-8.098 8.5-7.72 11.43-9.724 11.43-7.817 0 1.525-6.585 13.39-9.785 17.631-2.316 3.069-2.343 3.25-0.484 3.25 3.532 0 10.33-5.542 16.294-13.287l5.848-7.592-6.674-2.221c-3.671-1.222-8.776-3.277-11.345-4.567s-6.072-2.626-7.784-2.969c-2.907-0.581-4.784-1.984-3.873-2.894 0.219-0.219 6.676 1.673 14.35 4.203 10.198 3.363 15.837 4.672 20.953 4.863 4.438 0.165 10.198 1.321 15.718 3.154 7.37 2.446 8.76 2.657 9.01 1.364 0.42-2.196 4.77 5.502 4.96 8.785 0.09 1.464 1.52 4.124 3.18 5.911 4.87 5.234 1.6 3.73-3.87-1.781-4.87-4.904-13.32-10.037-18.63-11.315-2.2-0.528-2.71-0.253-3.07 1.644-0.9 4.661 0.31 5.15 5.97 2.432 1.6-0.765 2.59-0.775 3.33-0.033 1.95 1.948-9.37 13.42-13.55 13.732-0.528 0.039-1.224 1.196-1.548 2.571-0.325 1.375-1.2 2.5-1.945 2.5-0.744 0-1.705 0.9-2.134 2-0.723 1.853-0.786 1.862-0.851 0.128-0.061-1.626-0.3-1.696-1.82-0.531-0.963 0.739-0.661 0.121 0.67-1.373 2.954-3.314 2.25-4.383-1.577-2.395-3.345 1.737-6.982 6.384-7.919 10.117-0.365 1.456-0.866 2.446-1.112 2.199-0.247-0.246 0.233-2.742 1.066-5.546 1.787-6.018 1.444-6.16-6.228-2.589-7.21 3.357-9.258 3.312-6.075-0.134l2.425-2.624-5.701 0.452c-4.479 0.356-6.132 0.971-7.717 2.874-1.108 1.332-2.031 1.886-2.049 1.231s0.424-1.473 0.983-1.819c1.301-0.804 0.286-2.49-1.499-2.49-0.75 0-2.767 1.181-4.483 2.625-1.715 1.443-3.339 2.404-3.608 2.135s0.681-1.255 2.109-2.191c2.116-1.386 2.374-1.973 1.39-3.159-0.989-1.192-0.908-1.341 0.446-0.821 0.91 0.349 2.28 0.116 3.044-0.519 1.061-0.88 1.505-0.848 1.875 0.138 0.316 0.842 2.006-0.236 4.847-3.09 4.33-4.35 3.891-4.587-1.383-0.747-3.085 2.246-5.056 2.663-12.257 2.594-2.979-0.028-5.81 0.563-7 1.462-2.714 2.051-4.05 1.961-2.37-0.16 1.301-1.641 1.232-1.642-1.315-0.017-2.584 1.649-2.713 1.638-3.322-0.282-0.349-1.098-1.011-1.764-1.472-1.479-1.113 0.688-4.018-0.466-4.018-1.596 0-0.491 2.069-0.893 4.599-0.893 2.529 0 6.207-0.763 8.173-1.696l3.574-1.696-7.423-1.327c-15.424-2.758-16.838-2.952-16.403-2.247 0.246 0.397-0.952 1.002-2.661 1.344-4.699 0.94-5.859 0.766-5.859-0.878 0-0.825 0.42-1.5 0.935-1.5 0.514 0 2.186-0.476 3.716-1.057 2.148-0.817 2.46-1.256 1.369-1.93-0.834-0.516-2.201-0.451-3.337 0.157-1.375 0.736-1.731 0.716-1.245-0.07 0.374-0.605 0.091-1.152-0.629-1.215s0.471-0.457 2.647-0.876c2.216-0.426 5.196-0.329 6.775 0.222 3.105 1.082 10.139 0.177 9.29-1.196-0.293-0.475 0.032-1.092 0.723-1.37 0.69-0.279 0.356-0.536-0.744-0.571s-2.663 0.356-3.474 0.869c-0.836 0.529-1.708 0.551-2.017 0.052-0.299-0.483-3.623-1.997-7.388-3.363-6.308-2.29-7.151-2.376-10.768-1.1-2.2969 0.81-5.2559 1.113-7.1382 0.731-3.1914-0.649-3.1783-0.663 1.785-1.85 4.1633-0.995 4.498-1.226 2-1.377l-3-0.183 2.5-1.092c1.375-0.601 2.8927-1.005 3.3727-0.896 0.4799 0.108 0.6026-0.507 0.2725-1.367-0.4887-1.274-0.2442-1.374 1.317-0.538 1.333 0.713 2.12 0.696 2.586-0.058 0.369-0.596 1.702-0.825 2.963-0.508 4.738 1.189 38.489-12.578 38.489-15.7 0-0.774-1.013-1.941-2.25-2.592-2.252-1.185-1.983-1.139 3.25 0.556 1.603 0.519 0.081-0.898-3.664-3.41-1.585-1.0638 7.872 2.125 9.756 3.289 0.382 0.236 2.599-0.242 4.927-1.064 5.619-1.982 6.238-1.823 1.981 0.507l-3.5 1.916 3.5 0.058c2.526 0.041 3.096 0.312 2.048 0.975-2.935 1.857 23.202 12.068 30.81 12.036 10.95-0.047 23.22-6.491 26.63-13.985 0.93-2.031 1.4-2.532 1.13-1.193-0.52 2.604-0.08 2.38 6.38-3.2533l3.5-3.0509-3.57 3.9992c-1.96 2.199-3.5 4.673-3.4 5.498 0.09 0.825 0.24 2.118 0.32 2.873 0.12 1.087 0.45 1.121 1.61 0.164 2.51-2.089 4.13 0.32 6.53 9.713 1 3.899 1.36 4.25 4.32 4.25 3.11 0 3.39-0.36 7.59-9.5 4.18-9.123 6.06-11.488 6.14-7.75 0.02 1.047 0.58 0.504 1.39-1.35 0.74-1.705 2.07-3.379 2.96-3.719 1.8-0.6917 2.03 0.102 0.66 2.271-0.5 0.799-0.64 1.894-0.31 2.434s0.93 0.111 1.32-0.952c0.61-1.66 0.81-1.508 1.39 1.066 1.11 4.962 1.94 5.877 8.01 8.894l5.82 2.894 10.11-1.255c11.43-1.418 17.6-3.255 29.11-8.67 4.4-2.07 8.42-3.648 8.92-3.507 0.51 0.142 0.28-0.523-0.5-1.476-1.29-1.572-1.24-1.633 0.54-0.648 1.55 0.855 2.93 0.604 6.5-1.183 2.5-1.2478 5.17-2.0484 5.93-1.7791 0.84 0.2965 1.12 0.0485 0.7-0.6285-0.46-0.7367-0.1-0.8918 1.04-0.4546 1.29 0.4946 0.28 1.2895-3.96 3.1202l-5.69 2.456 6.63 3.873c3.65 2.131 10.51 5.074 15.26 6.541s9.53 3.209 10.63 3.872c3.11 1.875 15.19 4.785 16.99 4.094 0.94-0.36 1.36-0.206 1.01 0.367-0.35 0.562 0.38 0.88 1.69 0.739 1.52-0.164 2.21 0.222 2.02 1.126-0.21 0.971 0.45 1.233 2.22 0.894 1.46-0.28 2.26-0.079 1.92 0.483-0.35 0.568 0.24 0.697 1.44 0.315 1.12-0.357 2.3-0.228 2.62 0.286s-0.61 1.233-2.07 1.599c-1.65 0.413-2.93 0.209-3.39-0.54-0.41-0.662-1.49-0.918-2.4-0.569-1.06 0.406-1.41 0.24-0.97-0.461 0.77-1.256 0.17-1.11-13.42 3.259-5.14 1.651-9.94 2.774-10.67 2.495-0.72-0.28-2.59-0.126-4.15 0.342-2.45 0.734-2.53 0.862-0.59 0.936 1.24 0.048 2.25 0.484 2.25 0.97 0 0.485 0.9 1.118 2 1.406s2 0.031 2-0.575c0-0.603 0.61-0.27 1.35 0.742 1 1.375 2.03 1.665 4.08 1.151 1.98-0.499 2.54-0.362 2.01 0.497-0.52 0.84 0.04 1.037 1.91 0.679 1.46-0.279 2.65-0.333 2.65-0.12 0 0.339-3.66 1.941-5 2.189-0.27 0.051-2.75 0.775-5.5 1.609s-6.02 1.521-7.26 1.527c-1.25 0.006-3.11 0.537-4.14 1.18-1.78 1.115-1.74 1.344 0.94 5.047 1.55 2.134 4.08 4.835 5.64 6.003 4.21 3.167 5.21 4.393 1.92 2.34-2.55-1.583-2.83-1.606-2.28-0.183 0.94 2.468-0.38 1.958-3.98-1.536-2.9-2.806-4.11-3.229-10.8-3.777-4.15-0.339-7.54-0.432-7.54-0.208 0 0.225 1 2.037 2.22 4.027l2.21 3.618-3.7-2.791c-3.03-2.283-4.07-2.596-5.72-1.715-2.33 1.25-2.3 1.11-1.03 4.441 1.45 3.825 0.14 3.102-1.5-0.827-1.22-2.927-1.96-3.444-5.41-3.773-3.96-0.377-3.98-0.356-2.51 1.892 1.39 2.129 1.16 2.732-0.93 2.351-0.48-0.088-0.59 0.646-0.25 1.631 0.53 1.507 0.38 1.474-0.95-0.209-2.52-3.205-3.93-6.454-1.52-3.5 1.13 1.375 2.06 2.007 2.07 1.405 0.04-1.913-3.36-4.003-6.98-4.293-4.18-0.335-5.72-1.523-4.28-3.319 0.76-0.949 0.26-2.09-1.87-4.293l-2.9-3 1.78 4.919c1.24 3.457 2.74 5.492 5.02 6.849 4.03 2.392 4.13 3.158 0.32 2.396-1.84-0.369-3.11-0.138-3.42 0.625-0.32 0.788-0.53 0.687-0.6-0.289-0.06-0.825-2.11-2.512-4.56-3.75-4.94-2.491-6.49-2.775-6.49-1.191 0 0.583 0.56 0.736 1.25 0.34s0.92-0.351 0.51 0.099-0.19 1.535 0.48 2.41c0.75 0.976 0.36 0.854-1.01-0.313-2.64-2.26-2.95-1.123-0.49 1.826 0.95 1.144 0.28 0.762-1.49-0.848-1.78-1.61-3-3.151-2.73-3.426 0.65-0.644-3.57-5.147-4.81-5.147-0.53 0-0.34 0.77 0.42 1.711 2.05 2.559-3.78-1.694-10.03-7.313l-5.22-4.689-3.94 3.849c-2.16 2.116-3.97 4.544-4 5.395-0.04 0.909-0.45 0.585-1-0.785-0.51-1.283-0.64-3.488-0.29-4.9 0.5-2 0.34-2.404-0.75-1.83-0.77 0.405-0.42-0.091 0.77-1.101 3.62-3.068 4.86-9.205 3.02-14.963-0.85-2.681-1.84-6.336-2.2-8.124-0.92-4.617-3.01-4.022-4.5 1.279-0.69 2.491-1.09 4.65-0.88 4.797 0.22 0.148 1.74 0.85 3.38 1.56 2.73 1.178 2.84 1.4 1.25 2.562-2.13 1.561-2.29 4.552-0.24 4.552 0.83 0 1.5 0.442 1.5 0.981 0 0.98-2.28 1.711-7 2.239-2.49 0.279-3.48 2.132-5.37 10.004-0.55 2.292-0.37 2.633 1.11 2.156 1.41-0.454 1.34-0.201-0.36 1.277-2.43 2.119-4.8 12.57-3.85 17.023 0.49 2.335 0.41 2.519-0.51 1.07-1.76-2.758-4.35-2.243-3.77 0.75 0.26 1.375 0.09 2.5-0.39 2.5-1.2 0-1.08 4.745 0.14 5.5 1.23 0.759 1.19 5.289-0.07 8-0.7 1.526-0.86 0.992-0.65-2.25zm114.72-23.868c0-0.275-0.43-0.236-0.95 0.087s-1.44-0.325-2.03-1.441c-0.6-1.115-1.6-2.028-2.23-2.028-0.62 0-0.09 1.111 1.18 2.469 1.99 2.118 4.03 2.58 4.03 0.913zm-178.81-3.065c-0.722-0.289-1.584-0.253-1.916 0.079-0.333 0.332 0.258 0.569 1.312 0.525 1.165-0.048 1.402-0.285 0.604-0.604zm153.81-0.282c0-1.085-3.93-3.438-4.61-2.759-0.24 0.241-0.15 1.177 0.2 2.081 0.66 1.741 4.41 2.317 4.41 0.678zm-11.96-3.785c-5.71-7.395-9.06-13.105-9.4-16.027-0.21-1.773-0.16-3.223 0.1-3.223 0.66 0 7.52 5.396 15.54 12.227 4.95 4.218 7.57 5.773 9.75 5.773 1.63 0 2.97-0.341 2.97-0.757s-2.06-3.229-4.57-6.25c-6.68-8.016-12.68-16.993-11.36-16.993 0.62 0 3.27 1.913 5.89 4.25 7.14 6.397 16.81 11.75 21.21 11.75 5.22 0 5.48-1.402 0.66-3.577-5.19-2.34-16.1-10.987-17.05-13.514-0.39-1.05-0.59-1.909-0.44-1.909s4.95 1.575 10.66 3.5c10.97 3.694 19.31 4.503 24.69 2.396 2.65-1.042 2.1-1.344-9.73-5.304-12.16-4.074-28.86-11.221-30.04-12.856-0.32-0.443-4.37 0.828-9 2.825-17.78 7.667-23.63 9.601-32.66 10.795-5.08 0.673-9.35 0.98-9.5 0.684-0.14-0.297-2.62-1.514-5.51-2.704l-5.25-2.164v3.414c0 1.878 0.43 3.414 0.95 3.414 0.57 0 0.53 1.21-0.12 3.051-0.58 1.678-0.89 3.141-0.69 3.25 0.2 0.11 1.26 0.698 2.36 1.307 1.55 0.858 2.91 0.716 6.05-0.628 3.83-1.642 6.58-2.252 15.95-3.541 7.34-1.01 18.13-4.316 27.41-8.398 5.05-2.222 9.72-4.031 10.39-4.019 1.87 0.035-3.41 3.807-7.06 5.038-1.79 0.606-3.01 1.494-2.72 1.973 0.74 1.194-2.99 2.256-39.02 11.106-2.21 0.542-5.06 1.773-6.33 2.736-2.08 1.569-2.16 1.887-0.75 3.061 1.34 1.107 1.58 1.041 1.58-0.428 0-1.556 0.24-1.589 2.25-0.319 2.9 1.827 5.75 1.201 5.75-1.262 0-1.06 0.19-1.927 0.42-1.927s1.08-0.255 1.9-0.567c1.02-0.393 2.2 0.883 3.83 4.157 1.29 2.598 3.14 4.93 4.1 5.183s1.75 1.236 1.75 2.183c0 0.948 1.16 2.25 2.57 2.895 2.28 1.036 2.51 0.968 2.03-0.59-1.77-5.757-3.52-15.307-3.03-16.584 0.41-1.069 2.36 0.547 6.83 5.664 7.16 8.204 13.85 13.659 16.76 13.659 1.98 0 1.98-0.037-0.12-2.75zm-47.47-22.136c-0.62-1.009 3.34-2.291 4.62-1.496 0.47 0.286 0.59 0.939 0.27 1.451-0.73 1.184-4.16 1.215-4.89 0.045zm-90.568 23.468c0-0.23 0.29-1.175 0.645-2.099 0.571-1.488 0.399-1.528-1.5-0.341-2.497 1.559-2.79 2.858-0.645 2.858 0.825 0 1.5-0.188 1.5-0.418zm10.113-3.695c2.1-2.1 8.035-14.043 7.335-14.764-0.2-0.207-2.12-0.697-4.26-1.088l-3.892-0.712-1.213 7.926c-0.667 4.36-1.457 8.562-1.755 9.339-0.81 2.109 1.38 1.704 3.785-0.701zm6.815-0.298c0.69-0.832 0.79-1.648 0.23-1.989-0.51-0.317-1.16 0.318-1.45 1.411-0.617 2.357-0.36 2.479 1.22 0.578zm89.53 0.48c0.32-0.512 0.19-1.167-0.28-1.456-0.46-0.289-0.84 0.13-0.84 0.931 0 1.686 0.31 1.834 1.12 0.525zm37.54 0.618c0-0.172-1.42-1.634-3.15-3.25-3.06-2.849-3.09-1.733-0.04 1.813 1.3 1.519 3.19 2.369 3.19 1.437zm-82-9.187c0-3.487-0.36-4.5-1.62-4.5-1.29 0-1.5 0.651-1 3.125 0.34 1.719 0.62 3.744 0.62 4.5s0.45 1.375 1 1.375 1-2.025 1-4.5zm-127.81 2.817c-0.722-0.289-1.584-0.253-1.916 0.079-0.333 0.332 0.258 0.569 1.312 0.525 1.165-0.048 1.402-0.285 0.604-0.604zm152.81-7.317c0-0.55-0.45-1-1-1s-1 0.45-1 1 0.45 1 1 1 1-0.45 1-1zm-132.44-2.581c1.776-1.448 1.785-1.533 0.109-1-1.007 0.319-2.245 0.581-2.75 0.581s-0.918 0.45-0.918 1c0 1.448 1.336 1.23 3.559-0.581zm216.94-0.419c-0.34-0.55-1.83-0.993-3.31-0.984-2.1 0.011-2.36 0.226-1.19 0.984 1.98 1.277 5.29 1.277 4.5 0zm-91.5-21c0-1.1-0.17-2-0.38-2s-0.62 0.9-0.91 2-0.11 2 0.39 2c0.49 0 0.9-0.9 0.9-2zm-35-1.059c0-0.582-0.45-0.781-1-0.441s-1 0.817-1 1.059c0 0.243 0.45 0.441 1 0.441s1-0.476 1-1.059zm17.16 63.059c0-1.375 0.23-1.937 0.5-1.25 0.28 0.688 0.28 1.813 0 2.5-0.27 0.688-0.5 0.125-0.5-1.25zm75.14-7.321c-0.37-0.598-0.08-0.665 0.72-0.169 0.96 0.594 1.15 0.362 0.68-0.846-0.86-2.238-0.01-2.12 1.21 0.17 0.75 1.396 0.63 1.833-0.51 1.833-0.82 0-1.76-0.445-2.1-0.988zm-128.3-0.12c0-0.242 0.45-0.719 1-1.059s1-0.141 1 0.441c0 0.583-0.45 1.059-1 1.059s-1-0.198-1-0.441zm140.28-3.809c-1.5-1.938-2.44-3.75-1.95-3.75 0.24 0 1.18 1.125 2.08 2.5 1.69 2.573 1.59 3.477-0.13 1.25zm-212.28-2.143c0-0.216 0.698-0.661 1.552-0.988 0.89-0.342 1.291-0.174 0.941 0.393-0.588 0.95-2.493 1.405-2.493 0.595zm241-4.107c-0.68-0.825-1.75-1.532-2.37-1.572s-2.48-1.721-4.13-3.737l-3-3.665 4 3.127c4.14 3.234 8.21 7.347 7.28 7.347-0.29 0-1.09-0.675-1.78-1.5zm-135.84-2.5c0-1.375 0.23-1.937 0.5-1.25 0.28 0.688 0.28 1.813 0 2.5-0.27 0.688-0.5 0.125-0.5-1.25zm-4.08-0.416c-0.04-1.055 0.19-1.645 0.53-1.313 0.33 0.332 0.36 1.195 0.07 1.917-0.31 0.797-0.55 0.56-0.6-0.604zm157.65-14.24c0.68-0.274 2.03-0.29 3-0.037 0.98 0.254 0.42 0.478-1.23 0.498-1.65 0.021-2.44-0.187-1.77-0.461zm-6.73-1.285c0-0.582 0.45-1.059 1-1.059s1 0.199 1 0.441c0 0.243-0.45 0.719-1 1.059s-1 0.142-1-0.441zm3-0.059c0-0.55 0.2-1 0.44-1 0.25 0 0.72 0.45 1.06 1s0.14 1-0.44 1-1.06-0.45-1.06-1zm-253-1c-0.902-0.582-1.025-0.975-0.309-0.984 0.655-0.009 1.469 0.434 1.809 0.984 0.767 1.242 0.421 1.242-1.5 0zm249.27-2.604c0.33-0.332 1.2-0.368 1.92-0.079 0.8 0.319 0.56 0.556-0.6 0.604-1.06 0.044-1.65-0.193-1.32-0.525zm-273-5c0.33229-0.332 1.1948-0.368 1.9167-0.079 0.7977 0.319 0.5608 0.556-0.6042 0.604-1.0542 0.044-1.6448-0.193-1.3125-0.525zm235.73-23.396c0.83-0.533 2.18-0.969 3-0.969 1.34 0 1.34 0.108 0 0.969-0.82 0.533-2.17 0.97-3 0.97-1.33 0-1.33-0.108 0-0.97zm-162.23-1.168c0.581-0.581 1.647-0.86 2.368-0.62 0.749 0.25 0.296 0.703-1.056 1.057-1.663 0.435-2.054 0.305-1.312-0.437zm147.73 0.168c0.34-0.55 1.07-1 1.62-1s0.72 0.45 0.38 1-1.07 1-1.62 1-0.72-0.45-0.38-1zm-2.99-0.984c-0.34-0.558 0.08-1.0158 0.93-1.0158 1.76 0 2.02 0.5998 0.63 1.4568-0.51 0.317-1.21 0.118-1.56-0.441zm-86.88-5.5545c-0.97-2.5147-0.68-3.1635 0.49-1.1363 0.59 1.0037 0.85 2.0356 0.6 2.2931-0.26 0.2575-0.75-0.2631-1.09-1.1568zm112.37 0.5387c0.83-0.5332 1.95-0.9694 2.5-0.9694s0.33 0.4362-0.5 0.9694c-0.82 0.5331-1.95 0.9694-2.5 0.9694s-0.32-0.4363 0.5-0.9694zm-109-4.441c0-0.24254 0.45-0.71909 1-1.059 0.55-0.33993 1-0.14149 1 0.44097 0 0.58243-0.45 1.059-1 1.059s-1-0.1985-1-0.441zm30 0c0-0.24254 0.45-0.71909 1-1.059 0.55-0.33993 1-0.14149 1 0.44097 0 0.58243-0.45 1.059-1 1.059s-1-0.1985-1-0.441z"/>
  <metadata>
    <rdf:RDF>
      <cc:Work>
        <dc:format>image/svg+xml</dc:format>
        <dc:type rdf:resource="http://purl.org/dc/dcmitype/StillImage"/>
        <cc:license rdf:resource="http://creativecommons.org/licenses/publicdomain/"/>
        <dc:publisher>
          <cc:Agent rdf:about="http://openclipart.org/">
            <dc:title>Openclipart</dc:title>
          </cc:Agent>
        </dc:publisher>
        <dc:title>angel grunge</dc:title>
        <dc:date>2008-04-10T15:47:53</dc:date>
        <dc:description>inspired by a grunge font from Jerome Delage &gt; http://www.dafont.com/font.php?file=el_font_gohtic</dc:description>
        <dc:source>https://openclipart.org/detail/16294/angel-grunge-by-peileppe-16294</dc:source>
        <dc:creator>
          <cc:Agent>
            <dc:title>Peileppe</dc:title>
          </cc:Agent>
        </dc:creator>
        <dc:subject>
          <rdf:Bag>
            <rdf:li>angel</rdf:li>
            <rdf:li>black and white</rdf:li>
            <rdf:li>contour</rdf:li>
            <rdf:li>fonts</rdf:li>
            <rdf:li>gothic</rdf:li>
            <rdf:li>graffiti</rdf:li>
            <rdf:li>grunge</rdf:li>
            <rdf:li>line art</rdf:li>
            <rdf:li>outline</rdf:li>
            <rdf:li>punk</rdf:li>
            <rdf:li>style</rdf:li>
          </rdf:Bag>
        </dc:subject>
      </cc:Work>
      <cc:License rdf:about="http://creativecommons.org/licenses/publicdomain/">
        <cc:permits rdf:resource="http://creativecommons.org/ns#Reproduction"/>
        <cc:permits rdf:resource="http://creativecommons.org/ns#Distribution"/>
        <cc:permits rdf:resource="http://creativecommons.org/ns#DerivativeWorks"/>
      </cc:License>
    </rdf:RDF>
  </metadata>
</svg>
